<svg width="834" height="207" viewBox="0 0 834 207" fill="none" xmlns="http://www.w3.org/2000/svg">
<path d="M12.5 123H174.5L187 165H0L12.5 123Z" fill="#151515"/>
<path d="M26.5 78H160.5L169 106H18L26.5 78Z" fill="#151515"/>
<path d="M36 47H150.5L156 67H31L36 47Z" fill="#151515"/>
<path d="M281.616 165.64C273.307 165.64 265.599 164.164 258.492 161.212C251.495 158.151 245.372 153.941 240.124 148.584C234.876 143.117 230.831 136.831 227.988 129.724C225.145 122.508 223.724 114.8 223.724 106.6C223.724 98.4 225.145 90.7467 227.988 83.64C230.831 76.424 234.876 70.1373 240.124 64.78C245.372 59.4227 251.495 55.2133 258.492 52.152C265.599 49.0907 273.307 47.56 281.616 47.56C290.909 47.56 298.945 49.0907 305.724 52.152C312.503 55.2133 318.516 59.368 323.764 64.616L310.972 77.408C307.583 73.6907 303.428 70.7933 298.508 68.716C293.697 66.6387 288.067 65.6 281.616 65.6C275.931 65.6 270.737 66.584 266.036 68.552C261.335 70.52 257.235 73.3627 253.736 77.08C250.347 80.688 247.723 85.0067 245.864 90.036C244.005 95.0653 243.076 100.587 243.076 106.6C243.076 112.613 244.005 118.135 245.864 123.164C247.723 128.193 250.347 132.567 253.736 136.284C257.235 139.892 261.335 142.68 266.036 144.648C270.737 146.616 275.931 147.6 281.616 147.6C288.613 147.6 294.517 146.561 299.328 144.484C304.248 142.297 308.403 139.345 311.792 135.628L324.584 148.42C319.336 153.777 313.159 157.987 306.052 161.048C298.945 164.109 290.8 165.64 281.616 165.64ZM327.473 164V85.28H345.513V164H327.473ZM345.513 120.212L339.281 117.096C339.281 107.147 341.468 99.1107 345.841 92.988C350.324 86.756 357.048 83.64 366.013 83.64C369.949 83.64 373.503 84.3507 376.673 85.772C379.844 87.1933 382.796 89.4893 385.529 92.66L373.721 104.796C372.3 103.265 370.715 102.172 368.965 101.516C367.216 100.86 365.193 100.532 362.897 100.532C357.868 100.532 353.713 102.117 350.433 105.288C347.153 108.459 345.513 113.433 345.513 120.212ZM416.456 165.64C408.803 165.64 401.86 163.836 395.628 160.228C389.396 156.511 384.421 151.536 380.704 145.304C377.096 139.072 375.292 132.129 375.292 124.476C375.292 116.823 377.096 109.935 380.704 103.812C384.421 97.6893 389.396 92.824 395.628 89.216C401.86 85.4987 408.803 83.64 416.456 83.64C424.219 83.64 431.216 85.444 437.448 89.052C443.68 92.66 448.6 97.58 452.208 103.812C455.925 109.935 457.784 116.823 457.784 124.476C457.784 132.129 455.925 139.072 452.208 145.304C448.6 151.536 443.68 156.511 437.448 160.228C431.216 163.836 424.219 165.64 416.456 165.64ZM416.456 148.256C420.939 148.256 424.875 147.272 428.264 145.304C431.763 143.227 434.441 140.384 436.3 136.776C438.268 133.168 439.252 129.068 439.252 124.476C439.252 119.884 438.268 115.839 436.3 112.34C434.332 108.841 431.653 106.108 428.264 104.14C424.875 102.063 420.939 101.024 416.456 101.024C412.083 101.024 408.147 102.063 404.648 104.14C401.259 106.108 398.58 108.841 396.612 112.34C394.753 115.839 393.824 119.884 393.824 124.476C393.824 129.068 394.753 133.168 396.612 136.776C398.58 140.384 401.259 143.227 404.648 145.304C408.147 147.272 412.083 148.256 416.456 148.256ZM487.054 165.64C482.681 165.64 478.472 165.093 474.426 164C470.381 162.797 466.664 161.157 463.274 159.08C459.885 156.893 456.933 154.269 454.418 151.208L465.898 139.728C468.632 142.899 471.748 145.304 475.246 146.944C478.854 148.475 482.9 149.24 487.382 149.24C491.428 149.24 494.489 148.639 496.566 147.436C498.644 146.233 499.682 144.484 499.682 142.188C499.682 139.783 498.698 137.924 496.73 136.612C494.762 135.3 492.193 134.207 489.022 133.332C485.961 132.348 482.681 131.364 479.182 130.38C475.793 129.396 472.513 128.084 469.342 126.444C466.281 124.695 463.766 122.344 461.798 119.392C459.83 116.44 458.846 112.613 458.846 107.912C458.846 102.883 459.994 98.564 462.29 94.956C464.696 91.348 468.03 88.56 472.294 86.592C476.668 84.624 481.861 83.64 487.874 83.64C494.216 83.64 499.792 84.788 504.602 87.084C509.522 89.2707 513.622 92.6053 516.902 97.088L505.422 108.568C503.126 105.725 500.502 103.593 497.55 102.172C494.598 100.751 491.209 100.04 487.382 100.04C483.774 100.04 480.986 100.587 479.018 101.68C477.05 102.773 476.066 104.359 476.066 106.436C476.066 108.623 477.05 110.317 479.018 111.52C480.986 112.723 483.501 113.761 486.562 114.636C489.733 115.511 493.013 116.495 496.402 117.588C499.901 118.572 503.181 119.993 506.242 121.852C509.413 123.601 511.982 126.007 513.95 129.068C515.918 132.02 516.902 135.901 516.902 140.712C516.902 148.365 514.224 154.433 508.866 158.916C503.509 163.399 496.238 165.64 487.054 165.64ZM546.043 165.64C541.67 165.64 537.46 165.093 533.415 164C529.37 162.797 525.652 161.157 522.263 159.08C518.874 156.893 515.922 154.269 513.407 151.208L524.887 139.728C527.62 142.899 530.736 145.304 534.235 146.944C537.843 148.475 541.888 149.24 546.371 149.24C550.416 149.24 553.478 148.639 555.555 147.436C557.632 146.233 558.671 144.484 558.671 142.188C558.671 139.783 557.687 137.924 555.719 136.612C553.751 135.3 551.182 134.207 548.011 133.332C544.95 132.348 541.67 131.364 538.171 130.38C534.782 129.396 531.502 128.084 528.331 126.444C525.27 124.695 522.755 122.344 520.787 119.392C518.819 116.44 517.835 112.613 517.835 107.912C517.835 102.883 518.983 98.564 521.279 94.956C523.684 91.348 527.019 88.56 531.283 86.592C535.656 84.624 540.85 83.64 546.863 83.64C553.204 83.64 558.78 84.788 563.591 87.084C568.511 89.2707 572.611 92.6053 575.891 97.088L564.411 108.568C562.115 105.725 559.491 103.593 556.539 102.172C553.587 100.751 550.198 100.04 546.371 100.04C542.763 100.04 539.975 100.587 538.007 101.68C536.039 102.773 535.055 104.359 535.055 106.436C535.055 108.623 536.039 110.317 538.007 111.52C539.975 112.723 542.49 113.761 545.551 114.636C548.722 115.511 552.002 116.495 555.391 117.588C558.89 118.572 562.17 119.993 565.231 121.852C568.402 123.601 570.971 126.007 572.939 129.068C574.907 132.02 575.891 135.901 575.891 140.712C575.891 148.365 573.212 154.433 567.855 158.916C562.498 163.399 555.227 165.64 546.043 165.64ZM610.608 164V52.48H629.468V164H610.608ZM573.216 66.42V49.2H666.86V66.42H573.216ZM681.967 165.64C674.86 165.64 668.41 163.836 662.615 160.228C656.93 156.62 652.392 151.755 649.003 145.632C645.723 139.4 644.083 132.457 644.083 124.804C644.083 117.041 645.723 110.099 649.003 103.976C652.392 97.744 656.93 92.824 662.615 89.216C668.41 85.4987 674.86 83.64 681.967 83.64C687.98 83.64 693.283 84.952 697.875 87.576C702.576 90.0907 706.294 93.5893 709.027 98.072C711.76 102.555 713.127 107.639 713.127 113.324V135.956C713.127 141.641 711.76 146.725 709.027 151.208C706.403 155.691 702.74 159.244 698.039 161.868C693.338 164.383 687.98 165.64 681.967 165.64ZM684.919 148.584C691.588 148.584 696.946 146.343 700.991 141.86C705.146 137.377 707.223 131.637 707.223 124.64C707.223 119.939 706.294 115.784 704.435 112.176C702.576 108.568 699.952 105.78 696.563 103.812C693.283 101.735 689.402 100.696 684.919 100.696C680.546 100.696 676.664 101.735 673.275 103.812C669.995 105.78 667.371 108.568 665.403 112.176C663.544 115.784 662.615 119.939 662.615 124.64C662.615 129.341 663.544 133.496 665.403 137.104C667.371 140.712 669.995 143.555 673.275 145.632C676.664 147.6 680.546 148.584 684.919 148.584ZM706.075 164V142.844L709.191 123.656L706.075 104.632V85.28H724.115V164H706.075ZM732.656 164V45.92H750.696V164H732.656ZM809.313 164L776.021 123.82L809.149 85.28H830.633L792.585 128.576L793.405 118.244L832.273 164H809.313ZM759.293 164V45.92H777.333V164H759.293Z" fill="black"/>
</svg>
