<svg width="468" height="59" viewBox="0 0 468 59" fill="none" xmlns="http://www.w3.org/2000/svg">
<path d="M22.8621 35.9357H133.138L156 59H0L22.8621 35.9357Z" fill="black"/>
<path d="M41.6897 16.9415H114.31L129.103 31.8655H26.8965L41.6897 16.9415Z" fill="black"/>
<path d="M57.4914 0.999996H98.5086L110.276 12.8713H45.7241L57.4914 0.999996Z" fill="black"/>
<path d="M205.52 58.8C201.467 58.8 197.707 58.08 194.24 56.64C190.827 55.1467 187.84 53.0933 185.28 50.48C182.72 47.8133 180.747 44.7467 179.36 41.28C177.973 37.76 177.28 34 177.28 30C177.28 26 177.973 22.2667 179.36 18.8C180.747 15.28 182.72 12.2133 185.28 9.59999C187.84 6.98666 190.827 4.93333 194.24 3.43999C197.707 1.94666 201.467 1.19999 205.52 1.19999C210.053 1.19999 213.973 1.94666 217.28 3.43999C220.587 4.93333 223.52 6.95999 226.08 9.52L219.84 15.76C218.187 13.9467 216.16 12.5333 213.76 11.52C211.413 10.5067 208.667 9.99999 205.52 9.99999C202.747 9.99999 200.213 10.48 197.92 11.44C195.627 12.4 193.627 13.7867 191.92 15.6C190.267 17.36 188.987 19.4667 188.08 21.92C187.173 24.3733 186.72 27.0667 186.72 30C186.72 32.9333 187.173 35.6267 188.08 38.08C188.987 40.5333 190.267 42.6667 191.92 44.48C193.627 46.24 195.627 47.6 197.92 48.56C200.213 49.52 202.747 50 205.52 50C208.933 50 211.813 49.4933 214.16 48.48C216.56 47.4133 218.587 45.9733 220.24 44.16L226.48 50.4C223.92 53.0133 220.907 55.0667 217.44 56.56C213.973 58.0533 210 58.8 205.52 58.8Z" fill="black"/>
<path d="M227.089 58V19.6H235.889V58H227.089ZM235.889 36.64L232.849 35.12C232.849 30.2667 233.916 26.3467 236.049 23.36C238.236 20.32 241.516 18.8 245.889 18.8C247.809 18.8 249.543 19.1467 251.089 19.84C252.636 20.5333 254.076 21.6533 255.409 23.2L249.649 29.12C248.956 28.3733 248.183 27.84 247.329 27.52C246.476 27.2 245.489 27.04 244.369 27.04C241.916 27.04 239.889 27.8133 238.289 29.36C236.689 30.9067 235.889 33.3333 235.889 36.64Z" fill="black"/>
<path d="M269.696 58.8C265.962 58.8 262.576 57.92 259.536 56.16C256.496 54.3467 254.069 51.92 252.256 48.88C250.496 45.84 249.616 42.4533 249.616 38.72C249.616 34.9867 250.496 31.6267 252.256 28.64C254.069 25.6533 256.496 23.28 259.536 21.52C262.576 19.7067 265.962 18.8 269.696 18.8C273.482 18.8 276.896 19.68 279.936 21.44C282.976 23.2 285.376 25.6 287.136 28.64C288.949 31.6267 289.856 34.9867 289.856 38.72C289.856 42.4533 288.949 45.84 287.136 48.88C285.376 51.92 282.976 54.3467 279.936 56.16C276.896 57.92 273.482 58.8 269.696 58.8ZM269.696 50.32C271.882 50.32 273.802 49.84 275.456 48.88C277.162 47.8667 278.469 46.48 279.376 44.72C280.336 42.96 280.816 40.96 280.816 38.72C280.816 36.48 280.336 34.5067 279.376 32.8C278.416 31.0933 277.109 29.76 275.456 28.8C273.802 27.7867 271.882 27.28 269.696 27.28C267.562 27.28 265.642 27.7867 263.936 28.8C262.282 29.76 260.976 31.0933 260.016 32.8C259.109 34.5067 258.656 36.48 258.656 38.72C258.656 40.96 259.109 42.96 260.016 44.72C260.976 46.48 262.282 47.8667 263.936 48.88C265.642 49.84 267.562 50.32 269.696 50.32Z" fill="black"/>
<path d="M303.334 58.8C301.2 58.8 299.147 58.5333 297.174 58C295.2 57.4133 293.387 56.6133 291.734 55.6C290.08 54.5333 288.64 53.2533 287.414 51.76L293.014 46.16C294.347 47.7067 295.867 48.88 297.574 49.68C299.334 50.4267 301.307 50.8 303.494 50.8C305.467 50.8 306.96 50.5067 307.974 49.92C308.987 49.3333 309.494 48.48 309.494 47.36C309.494 46.1867 309.014 45.28 308.054 44.64C307.094 44 305.84 43.4667 304.294 43.04C302.8 42.56 301.2 42.08 299.494 41.6C297.84 41.12 296.24 40.48 294.694 39.68C293.2 38.8267 291.974 37.68 291.014 36.24C290.054 34.8 289.574 32.9333 289.574 30.64C289.574 28.1867 290.134 26.08 291.254 24.32C292.427 22.56 294.054 21.2 296.134 20.24C298.267 19.28 300.8 18.8 303.734 18.8C306.827 18.8 309.547 19.36 311.894 20.48C314.294 21.5467 316.294 23.1733 317.894 25.36L312.294 30.96C311.174 29.5733 309.894 28.5333 308.454 27.84C307.014 27.1467 305.36 26.8 303.494 26.8C301.734 26.8 300.374 27.0667 299.414 27.6C298.454 28.1333 297.974 28.9067 297.974 29.92C297.974 30.9867 298.454 31.8133 299.414 32.4C300.374 32.9867 301.6 33.4933 303.094 33.92C304.64 34.3467 306.24 34.8267 307.894 35.36C309.6 35.84 311.2 36.5333 312.694 37.44C314.24 38.2933 315.494 39.4667 316.454 40.96C317.414 42.4 317.894 44.2933 317.894 46.64C317.894 50.3733 316.587 53.3333 313.974 55.52C311.36 57.7067 307.814 58.8 303.334 58.8Z" fill="black"/>
<path d="M331.309 58.8C329.175 58.8 327.122 58.5333 325.149 58C323.175 57.4133 321.362 56.6133 319.709 55.6C318.055 54.5333 316.615 53.2533 315.389 51.76L320.989 46.16C322.322 47.7067 323.842 48.88 325.549 49.68C327.309 50.4267 329.282 50.8 331.469 50.8C333.442 50.8 334.935 50.5067 335.949 49.92C336.962 49.3333 337.469 48.48 337.469 47.36C337.469 46.1867 336.989 45.28 336.029 44.64C335.069 44 333.815 43.4667 332.269 43.04C330.775 42.56 329.175 42.08 327.469 41.6C325.815 41.12 324.215 40.48 322.669 39.68C321.175 38.8267 319.949 37.68 318.989 36.24C318.029 34.8 317.549 32.9333 317.549 30.64C317.549 28.1867 318.109 26.08 319.229 24.32C320.402 22.56 322.029 21.2 324.109 20.24C326.242 19.28 328.775 18.8 331.709 18.8C334.802 18.8 337.522 19.36 339.869 20.48C342.269 21.5467 344.269 23.1733 345.869 25.36L340.269 30.96C339.149 29.5733 337.869 28.5333 336.429 27.84C334.989 27.1467 333.335 26.8 331.469 26.8C329.709 26.8 328.349 27.0667 327.389 27.6C326.429 28.1333 325.949 28.9067 325.949 29.92C325.949 30.9867 326.429 31.8133 327.389 32.4C328.349 32.9867 329.575 33.4933 331.069 33.92C332.615 34.3467 334.215 34.8267 335.869 35.36C337.575 35.84 339.175 36.5333 340.669 37.44C342.215 38.2933 343.469 39.4667 344.429 40.96C345.389 42.4 345.869 44.2933 345.869 46.64C345.869 50.3733 344.562 53.3333 341.949 55.52C339.335 57.7067 335.789 58.8 331.309 58.8Z" fill="black"/>
<path d="M362.004 58V3.6H371.204V58H362.004ZM343.764 10.4V1.99999H389.444V10.4H343.764Z" fill="black"/>
<path d="M396.013 58.8C392.546 58.8 389.4 57.92 386.573 56.16C383.8 54.4 381.586 52.0267 379.933 49.04C378.333 46 377.533 42.6133 377.533 38.88C377.533 35.0933 378.333 31.7067 379.933 28.72C381.586 25.68 383.8 23.28 386.573 21.52C389.4 19.7067 392.546 18.8 396.013 18.8C398.946 18.8 401.533 19.44 403.773 20.72C406.066 21.9467 407.88 23.6533 409.213 25.84C410.546 28.0267 411.213 30.5067 411.213 33.28V44.32C411.213 47.0933 410.546 49.5733 409.213 51.76C407.933 53.9467 406.146 55.68 403.853 56.96C401.56 58.1867 398.946 58.8 396.013 58.8ZM397.453 50.48C400.706 50.48 403.32 49.3867 405.293 47.2C407.32 45.0133 408.333 42.2133 408.333 38.8C408.333 36.5067 407.88 34.48 406.973 32.72C406.066 30.96 404.786 29.6 403.133 28.64C401.533 27.6267 399.64 27.12 397.453 27.12C395.32 27.12 393.426 27.6267 391.773 28.64C390.173 29.6 388.893 30.96 387.933 32.72C387.026 34.48 386.573 36.5067 386.573 38.8C386.573 41.0933 387.026 43.12 387.933 44.88C388.893 46.64 390.173 48.0267 391.773 49.04C393.426 50 395.32 50.48 397.453 50.48ZM407.773 58V47.68L409.293 38.32L407.773 29.04V19.6H416.573V58H407.773Z" fill="black"/>
<path d="M419.939 58V0.399994H428.739V58H419.939Z" fill="black"/>
<path d="M456.533 58L440.293 38.4L456.453 19.6H466.933L448.373 40.72L448.773 35.68L467.733 58H456.533ZM432.133 58V0.399994H440.933V58H432.133Z" fill="black"/>
</svg>
